PathFileType	4	(X/Y/Z)	OpenSim_Sub05_CSBaseline_Magnet.trc
DataRate	CameraRate	NumFrames	NumMarkers	Units	OrigDataRate	OrigDataStartFrame	OrigNumFrames
100	100	27	8	m	100	1	10557
Frame#	Time	torso_imu_offset_imu	pelvis_imu_offset_imu	tibia_r_imu_offset_imu	femur_r_imu_offset_imu	tibia_l_imu_offset_imu	femur_l_imu_offset_imu	toes_r_imu_offset_imu	toes_l_imu_offset_imu
				X1	Y1	Z1	X2	Y2	Z2	X3	Y3	Z3	X4	Y4	Z4	X5	Y5	Z5	X6	Y6	Z6	X7	Y7	Z7	X8		Y8	Z8	

1	0	-0.87412780	-0.27918723	0.30049883	-0.58633334	0.35143825	-0.68489857	-0.50296764	-0.45093419	-0.48359876	-0.76455669	-0.47639928	-0.24333906	-0.77988481	0.42972403	0.34904950	-0.66645282	0.32405729	0.27491837	-0.60276541	-0.77578593	-0.10562455	-0.64076951	-0.57192380	-0.30584739
2	0.01000000	-0.87258890	-0.28109625	0.29884504	-0.58595879	0.35218262	-0.68746271	-0.50168739	-0.45082275	-0.47521977	-0.76365168	-0.47396961	-0.24077535	-0.78359646	0.42669599	0.34422243	-0.65901668	0.32118754	0.27348678	-0.60171210	-0.77393460	-0.10586038	-0.63772272	-0.57248179	-0.30392134
3	0.02000000	-0.87458711	-0.28088769	0.30096152	-0.58120896	0.35207795	-0.69238728	-0.50013399	-0.45554983	-0.47938271	-0.76122462	-0.47238247	-0.23834594	-0.77930781	0.42538017	0.34996560	-0.66728437	0.32278129	0.27766167	-0.60090341	-0.77582529	-0.10742948	-0.64271960	-0.57093836	-0.30246070
4	0.03000000	-0.87493011	-0.27992498	0.29514429	-0.58049652	0.35181159	-0.69244614	-0.50416361	-0.45517552	-0.48342777	-0.76476332	-0.47254860	-0.24309837	-0.78003746	0.42861399	0.34828754	-0.66382870	0.32017862	0.27803689	-0.60108729	-0.77845127	-0.10936673	-0.63636753	-0.56882374	-0.30797791
5	0.04000000	-0.87563971	-0.28616140	0.30058333	-0.57818575	0.35373526	-0.69215054	-0.50239290	-0.45222664	-0.48053105	-0.76837260	-0.47402902	-0.24198532	-0.78406853	0.42910201	0.35489740	-0.66178927	0.31832090	0.28466844	-0.60032742	-0.77689187	-0.11230765	-0.63991068	-0.57724864	-0.31227023
6	0.05000000	-0.87108761	-0.28247616	0.30208482	-0.58328438	0.35408651	-0.69495096	-0.50019579	-0.45367011	-0.48206447	-0.76534179	-0.47485677	-0.24348387	-0.78324489	0.42703107	0.34854581	-0.66311867	0.32049141	0.27788431	-0.60487706	-0.77839695	-0.10910519	-0.63893018	-0.57446545	-0.31089016
7	0.06000000	-0.87606829	-0.28318830	0.30077044	-0.58217531	0.35601724	-0.68998941	-0.50259375	-0.45295280	-0.48099336	-0.76308043	-0.47347527	-0.23990113	-0.77792839	0.42821441	0.34894351	-0.66569986	0.32133461	0.27315262	-0.59900944	-0.77540107	-0.10958966	-0.63768674	-0.57294839	-0.30835874
8	0.07000000	-0.87224198	-0.28563262	0.30053303	-0.57993880	0.35349451	-0.68817895	-0.50169499	-0.45148860	-0.48085589	-0.76907623	-0.47055711	-0.24328883	-0.78143376	0.42916148	0.35508769	-0.67041809	0.31962725	0.28805107	-0.59890997	-0.77663488	-0.10840415	-0.63354976	-0.57680168	-0.30755117
9	0.08000000	-0.87387856	-0.28297128	0.30466463	-0.58138376	0.35036951	-0.69628879	-0.50047745	-0.45545734	-0.47685864	-0.76947012	-0.47250543	-0.23819574	-0.77670476	0.42719277	0.34910585	-0.66282785	0.31713931	0.28119835	-0.60303668	-0.78144428	-0.10960345	-0.63639351	-0.57358956	-0.31016940
10	0.09000000	-0.87086088	-0.28579227	0.30165715	-0.58642521	0.34977636	-0.69192529	-0.50211229	-0.45493893	-0.47725923	-0.76671651	-0.46934418	-0.24210869	-0.77931430	0.42750815	0.34982174	-0.66194857	0.31642578	0.27316477	-0.60168114	-0.77368574	-0.10856463	-0.63438417	-0.57167445	-0.31835217
11	0.10000000	-0.86628605	-0.28778499	0.30578928	-0.58191730	0.35097165	-0.69299520	-0.50467894	-0.45468927	-0.47698925	-0.76591614	-0.47129938	-0.23952695	-0.78373369	0.43408586	0.35621482	-0.66135503	0.31787083	0.27777176	-0.60067232	-0.77833815	-0.10980513	-0.63425414	-0.57418085	-0.31404554
12	0.11000000	-0.86778902	-0.28485615	0.30629758	-0.58191184	0.35542421	-0.69549213	-0.50352450	-0.46168547	-0.47351604	-0.76761990	-0.47272495	-0.23546963	-0.77531128	0.43380484	0.35203376	-0.66354567	0.32203506	0.27876136	-0.60126232	-0.77789848	-0.10810714	-0.63472906	-0.57297773	-0.31478921
13	0.12000000	-0.87045995	-0.28908863	0.30684854	-0.57965196	0.35502689	-0.69471906	-0.50126497	-0.45944812	-0.47525865	-0.76882589	-0.47429465	-0.24127287	-0.77412613	0.43617937	0.35698728	-0.66766887	0.32408389	0.27895996	-0.59945913	-0.77912369	-0.11286378	-0.63929174	-0.57209376	-0.31766850
14	0.13000000	-0.86743818	-0.29372984	0.30836843	-0.57841847	0.35397671	-0.69508537	-0.49991793	-0.45991395	-0.47287493	-0.76621298	-0.47219446	-0.23600802	-0.77782443	0.43783269	0.35210307	-0.66505408	0.31870169	0.27603586	-0.59805187	-0.78055304	-0.11169862	-0.63442696	-0.57230257	-0.31443211
15	0.14000000	-0.86578861	-0.29040626	0.30602427	-0.57624665	0.35536058	-0.69397376	-0.50406787	-0.45830628	-0.46812100	-0.77077621	-0.46707044	-0.23842362	-0.77609978	0.43832550	0.34996354	-0.66896212	0.31420445	0.28209221	-0.59094422	-0.78233654	-0.10960245	-0.63743103	-0.57304555	-0.31807291
16	0.15000000	-0.86678545	-0.28825760	0.30692093	-0.57978292	0.36002593	-0.70133972	-0.50230786	-0.46313983	-0.46324827	-0.77353257	-0.46788882	-0.23557045	-0.77684585	0.43306165	0.35384082	-0.66345288	0.31677893	0.27730933	-0.59658588	-0.77945414	-0.11131587	-0.63913106	-0.57915150	-0.31724048
17	0.16000000	-0.86282809	-0.29256149	0.30962239	-0.57727215	0.35851495	-0.69530179	-0.49813995	-0.46193756	-0.46252225	-0.77039854	-0.46838319	-0.24125519	-0.77797159	0.43028859	0.35347058	-0.65957520	0.31181328	0.27261974	-0.59664098	-0.78011561	-0.11411897	-0.63285049	-0.57036520	-0.31874481
18	0.17000000	-0.86285191	-0.29218505	0.31098679	-0.57817680	0.36301851	-0.69409135	-0.50201734	-0.46116961	-0.47061388	-0.77399357	-0.47031527	-0.24304265	-0.77598949	0.43429778	0.35774205	-0.66386077	0.31258032	0.27906677	-0.59376289	-0.77773844	-0.11163085	-0.63967093	-0.57200247	-0.31563977
19	0.18000000	-0.86606955	-0.29078849	0.31751929	-0.57514500	0.36376042	-0.69394316	-0.49966842	-0.46614702	-0.46446192	-0.77142965	-0.46841772	-0.24117316	-0.77431139	0.43563845	0.35506068	-0.66667158	0.31597340	0.27105239	-0.59820495	-0.77586338	-0.10872381	-0.63954884	-0.57475086	-0.31591787
20	0.19000000	-0.86392020	-0.29370375	0.31734616	-0.57729615	0.36171128	-0.69245466	-0.49824272	-0.46542791	-0.46405918	-0.77351234	-0.46101254	-0.24260173	-0.76912611	0.43580202	0.35502416	-0.66877130	0.30711740	0.27821658	-0.59647444	-0.77779198	-0.11707522	-0.63506497	-0.57634768	-0.31531156
21	0.20000000	-0.85612542	-0.30025246	0.32001145	-0.57741576	0.36625494	-0.69361379	-0.49655547	-0.46427810	-0.47056086	-0.77399378	-0.46322026	-0.23797078	-0.77359628	0.43367532	0.35614473	-0.66851547	0.31039958	0.27625164	-0.59217471	-0.77875614	-0.11301116	-0.63561879	-0.57366242	-0.31414341
22	0.21000000	-0.85841680	-0.30228997	0.32204477	-0.57606703	0.36412212	-0.69034293	-0.49911938	-0.46587257	-0.46844928	-0.77060289	-0.46286625	-0.24074341	-0.77433485	0.43575271	0.35769717	-0.66307181	0.30968511	0.27830333	-0.59627121	-0.77638084	-0.10886294	-0.63277991	-0.57183701	-0.31564570
23	0.22000000	-0.85643050	-0.30096425	0.32088224	-0.57687145	0.36172964	-0.69569779	-0.50108266	-0.46903465	-0.46254792	-0.77372198	-0.46288325	-0.24027124	-0.77364689	0.44204694	0.35776775	-0.66624286	0.30876572	0.28229064	-0.59353649	-0.77947885	-0.11449689	-0.63850653	-0.57270417	-0.32011613
24	0.23000000	-0.85655041	-0.30657804	0.32596901	-0.57351973	0.36587910	-0.69626321	-0.49783207	-0.46420328	-0.46361506	-0.77527621	-0.45737876	-0.24276244	-0.77016716	0.43721403	0.35999302	-0.66493041	0.31233700	0.27687804	-0.59536179	-0.77932705	-0.11825300	-0.63493400	-0.57018841	-0.32174836
25	0.24000000	-0.85490786	-0.30792335	0.33249821	-0.57067312	0.36711426	-0.69558116	-0.50518547	-0.46356177	-0.46408194	-0.77533715	-0.45877883	-0.24523221	-0.76829461	0.43696251	0.35770399	-0.67172405	0.30921319	0.28150775	-0.59643150	-0.77700194	-0.11745559	-0.63453794	-0.57310865	-0.31974562
26	0.25000000	-0.84758622	-0.31161099	0.32971394	-0.56828895	0.36787312	-0.69175265	-0.50112836	-0.46517979	-0.46762876	-0.77262703	-0.45945601	-0.24090229	-0.77032724	0.43617549	0.35265942	-0.66939442	0.30721675	0.28258939	-0.59963371	-0.77438920	-0.11397432	-0.63151215	-0.57491451	-0.31847003
27	0.26000000	-0.84766575	-0.30896137	0.32965874	-0.57056047	0.37206052	-0.69218722	-0.49747816	-0.46259609	-0.46860319	-0.77816522	-0.45617606	-0.24028836	-0.77256120	0.43771422	0.35036512	-0.66645190	0.30995838	0.27764380	-0.59004598	-0.77745030	-0.11899004	-0.63385802	-0.57389266	-0.32173915
